<svg xmlns="http://www.w3.org/2000/svg">
<defs>
<symbol id="jd-activity" viewBox="0 0 24 24" fill="none" stroke="currentColor" stroke-width="1.5" stroke-linecap="round" stroke-linejoin="round"><path d="M3 12h3.3l2.7-6.75 4.5 13.5L16.2 12H21"/></symbol>
<symbol id="jd-arrow-down" viewBox="0 0 24 24" fill="none" stroke="currentColor" stroke-width="1.5" stroke-linecap="round" stroke-linejoin="round"><path d="M12 4.75v14.5"/><path d="m6 13.25 6 6 6-6"/></symbol>
<symbol id="jd-arrow-left" viewBox="0 0 24 24" fill="none" stroke="currentColor" stroke-width="1.5" stroke-linecap="round" stroke-linejoin="round"><path d="M19.25 12H4.75"/><path d="m10.75 6-6 6 6 6"/></symbol>
<symbol id="jd-arrow-right" viewBox="0 0 24 24" fill="none" stroke="currentColor" stroke-width="1.5" stroke-linecap="round" stroke-linejoin="round"><path d="M4.75 12h14.5"/><path d="m13.25 6 6 6-6 6"/></symbol>
<symbol id="jd-arrow-up" viewBox="0 0 24 24" fill="none" stroke="currentColor" stroke-width="1.5" stroke-linecap="round" stroke-linejoin="round"><path d="M12 19.25V4.75"/><path d="m6 10.75 6-6 6 6"/></symbol>
<symbol id="jd-banknote" viewBox="0 0 24 24" fill="none" stroke="currentColor" stroke-width="1.5" stroke-linecap="round" stroke-linejoin="round"><rect x="2.75" y="6" width="18.5" height="12" rx="2"/><circle cx="12" cy="12" r="2.5"/><path d="M6.25 11v2"/><path d="M17.75 11v2"/></symbol>
<symbol id="jd-bell" viewBox="0 0 24 24" fill="none" stroke="currentColor" stroke-width="1.5" stroke-linecap="round" stroke-linejoin="round"><path d="M5 17.25c1.6-1.8 2.15-3.6 2.15-6.35C7.15 7.2 9.2 4.75 12 4.75s4.85 2.45 4.85 6.15c0 2.75.55 4.55 2.15 6.35Z"/><path d="M10.1 20.5a1.95 1.95 0 0 0 3.8 0"/></symbol>
<symbol id="jd-building" viewBox="0 0 24 24" fill="none" stroke="currentColor" stroke-width="1.5" stroke-linecap="round" stroke-linejoin="round"><path d="M5.25 20.25V5.5A1.75 1.75 0 0 1 7 3.75h6a1.75 1.75 0 0 1 1.75 1.75v14.75"/><path d="M14.75 9.5H18a1.75 1.75 0 0 1 1.75 1.75v9"/><path d="M3 20.25h18"/><path d="M8.5 7.5h3"/><path d="M8.5 11h3"/><path d="M8.5 14.5h3"/></symbol>
<symbol id="jd-calendar-check" viewBox="0 0 24 24" fill="none" stroke="currentColor" stroke-width="1.5" stroke-linecap="round" stroke-linejoin="round"><rect x="3.75" y="5.25" width="16.5" height="15" rx="2"/><path d="M8 3.25v3.5"/><path d="M16 3.25v3.5"/><path d="M3.75 9.75h16.5"/><path d="m9.25 14.75 2 2 3.5-3.5"/></symbol>
<symbol id="jd-calendar" viewBox="0 0 24 24" fill="none" stroke="currentColor" stroke-width="1.5" stroke-linecap="round" stroke-linejoin="round"><rect x="3.75" y="5.25" width="16.5" height="15" rx="2"/><path d="M8 3.25v3.5"/><path d="M16 3.25v3.5"/><path d="M3.75 9.75h16.5"/></symbol>
<symbol id="jd-chart-bar" viewBox="0 0 24 24" fill="none" stroke="currentColor" stroke-width="1.5" stroke-linecap="round" stroke-linejoin="round"><path d="M3.75 3.75v16.5h16.5"/><path d="M8.5 16.75v-5.5"/><path d="M13 16.75v-8.5"/><path d="M17.5 16.75V5.25"/></symbol>
<symbol id="jd-chart-line" viewBox="0 0 24 24" fill="none" stroke="currentColor" stroke-width="1.5" stroke-linecap="round" stroke-linejoin="round"><path d="M3.75 3.75v16.5h16.5"/><path d="m7.5 14.5 3.25-4 3 2.5 4.5-6"/></symbol>
<symbol id="jd-chart-pie" viewBox="0 0 24 24" fill="none" stroke="currentColor" stroke-width="1.5" stroke-linecap="round" stroke-linejoin="round"><path d="M12 3.75A8.25 8.25 0 1 0 20.25 12H12Z"/><path d="M14.75 3.95a8.3 8.3 0 0 1 5.3 5.3h-5.3Z"/></symbol>
<symbol id="jd-check" viewBox="0 0 24 24" fill="none" stroke="currentColor" stroke-width="1.5" stroke-linecap="round" stroke-linejoin="round"><path d="m4.5 12.9 4.9 4.85L19.5 7.1"/></symbol>
<symbol id="jd-chevron-down" viewBox="0 0 24 24" fill="none" stroke="currentColor" stroke-width="1.5" stroke-linecap="round" stroke-linejoin="round"><path d="m7.75 10 4.25 4.25L16.25 10"/></symbol>
<symbol id="jd-chevron-left" viewBox="0 0 24 24" fill="none" stroke="currentColor" stroke-width="1.5" stroke-linecap="round" stroke-linejoin="round"><path d="M14.25 7.75 10 12l4.25 4.25"/></symbol>
<symbol id="jd-chevron-right" viewBox="0 0 24 24" fill="none" stroke="currentColor" stroke-width="1.5" stroke-linecap="round" stroke-linejoin="round"><path d="m9.75 7.75 4.25 4.25-4.25 4.25"/></symbol>
<symbol id="jd-chevron-up" viewBox="0 0 24 24" fill="none" stroke="currentColor" stroke-width="1.5" stroke-linecap="round" stroke-linejoin="round"><path d="m7.75 14.25 4.25-4.25 4.25 4.25"/></symbol>
<symbol id="jd-chevrons-up-down" viewBox="0 0 24 24" fill="none" stroke="currentColor" stroke-width="1.5" stroke-linecap="round" stroke-linejoin="round"><path d="m8.25 8.25 3.75-3.75 3.75 3.75"/><path d="m8.25 15.75 3.75 3.75 3.75-3.75"/></symbol>
<symbol id="jd-clock" viewBox="0 0 24 24" fill="none" stroke="currentColor" stroke-width="1.5" stroke-linecap="round" stroke-linejoin="round"><circle cx="12" cy="12" r="9"/><path d="M12 6.75V12l3.5 2"/></symbol>
<symbol id="jd-close" viewBox="0 0 24 24" fill="none" stroke="currentColor" stroke-width="1.5" stroke-linecap="round" stroke-linejoin="round"><path d="m6 6 12 12"/><path d="M18 6 6 18"/></symbol>
<symbol id="jd-columns" viewBox="0 0 24 24" fill="none" stroke="currentColor" stroke-width="1.5" stroke-linecap="round" stroke-linejoin="round"><rect x="3.75" y="3.75" width="16.5" height="16.5" rx="2"/><path d="M12 3.75v16.5"/></symbol>
<symbol id="jd-command" viewBox="0 0 24 24" fill="none" stroke="currentColor" stroke-width="1.5" stroke-linecap="round" stroke-linejoin="round"><path d="M8.5 8.5h7v7h-7Z"/><path d="M8.5 8.5V6.25a2.25 2.25 0 1 0-2.25 2.25Z"/><path d="M15.5 8.5h2.25A2.25 2.25 0 1 0 15.5 6.25Z"/><path d="M15.5 15.5v2.25a2.25 2.25 0 1 0 2.25-2.25Z"/><path d="M8.5 15.5H6.25a2.25 2.25 0 1 0 2.25 2.25Z"/></symbol>
<symbol id="jd-copy" viewBox="0 0 24 24" fill="none" stroke="currentColor" stroke-width="1.5" stroke-linecap="round" stroke-linejoin="round"><rect x="8.7" y="8.7" width="12" height="12" rx="2.2"/><path d="M5.25 15.3A1.95 1.95 0 0 1 3.3 13.35V5.5A2.2 2.2 0 0 1 5.5 3.3h7.9a1.95 1.95 0 0 1 1.95 1.95"/></symbol>
<symbol id="jd-crown" viewBox="0 0 24 24" fill="none" stroke="currentColor" stroke-width="1.5" stroke-linecap="round" stroke-linejoin="round"><path d="m4.25 8.5 3.5 3.25L12 6l4.25 5.75 3.5-3.25-1.35 9H5.6Z"/><path d="M5.6 20.25h12.8"/></symbol>
<symbol id="jd-cursor" viewBox="0 0 24 24" fill="none" stroke="currentColor" stroke-width="1.5" stroke-linecap="round" stroke-linejoin="round"><path d="m4.75 4.75 6.6 15.35 2.3-6.45 6.45-2.3Z"/></symbol>
<symbol id="jd-dashboard" viewBox="0 0 24 24" fill="none" stroke="currentColor" stroke-width="1.5" stroke-linecap="round" stroke-linejoin="round"><rect x="3.75" y="3.75" width="7" height="9.5" rx="1.5"/><rect x="13.25" y="3.75" width="7" height="5.5" rx="1.5"/><rect x="13.25" y="11.75" width="7" height="8.5" rx="1.5"/><rect x="3.75" y="15.75" width="7" height="4.5" rx="1.5"/></symbol>
<symbol id="jd-download" viewBox="0 0 24 24" fill="none" stroke="currentColor" stroke-width="1.5" stroke-linecap="round" stroke-linejoin="round"><path d="M12 4v11.25"/><path d="m7.25 10.5 4.75 4.75 4.75-4.75"/><path d="M4.25 16.5v1.75c0 .97.78 1.75 1.75 1.75h12c.97 0 1.75-.78 1.75-1.75V16.5"/></symbol>
<symbol id="jd-equal" viewBox="0 0 24 24" fill="none" stroke="currentColor" stroke-width="1.5" stroke-linecap="round" stroke-linejoin="round"><path d="M5.5 9.25h13"/><path d="M5.5 14.75h13"/></symbol>
<symbol id="jd-eraser" viewBox="0 0 24 24" fill="none" stroke="currentColor" stroke-width="1.5" stroke-linecap="round" stroke-linejoin="round"><path d="m5.1 13.4 6.8-6.8a1.9 1.9 0 0 1 2.7 0l3.5 3.5a1.9 1.9 0 0 1 0 2.7l-6.8 6.8a1.9 1.9 0 0 1-2.7 0l-3.5-3.5a1.9 1.9 0 0 1 0-2.7Z"/><path d="m9.5 9 6.2 6.2"/><path d="M13.75 20.25h6.75"/></symbol>
<symbol id="jd-external-link" viewBox="0 0 24 24" fill="none" stroke="currentColor" stroke-width="1.5" stroke-linecap="round" stroke-linejoin="round"><path d="M13.5 5.25H6A1.75 1.75 0 0 0 4.25 7v11A1.75 1.75 0 0 0 6 19.75h11A1.75 1.75 0 0 0 18.75 18v-7.5"/><path d="M10.75 13.25 19.5 4.5"/><path d="M14.5 4.25h5.25V9.5"/></symbol>
<symbol id="jd-eye-off" viewBox="0 0 24 24" fill="none" stroke="currentColor" stroke-width="1.5" stroke-linecap="round" stroke-linejoin="round"><path d="m4 4 16 16"/><path d="M8.85 6.6A9.1 9.1 0 0 1 12 5.75c5.75 0 9.25 6.25 9.25 6.25a17 17 0 0 1-2.75 3.55"/><path d="M6.25 7.9A16.7 16.7 0 0 0 2.75 12S6.25 18.25 12 18.25a9 9 0 0 0 3.1-.55"/><path d="M9.9 9.9a2.95 2.95 0 0 0 4.15 4.2"/></symbol>
<symbol id="jd-eye" viewBox="0 0 24 24" fill="none" stroke="currentColor" stroke-width="1.5" stroke-linecap="round" stroke-linejoin="round"><path d="M2.75 12S6.25 5.75 12 5.75 21.25 12 21.25 12 17.75 18.25 12 18.25 2.75 12 2.75 12Z"/><circle cx="12" cy="12" r="2.75"/></symbol>
<symbol id="jd-filter" viewBox="0 0 24 24" fill="none" stroke="currentColor" stroke-width="1.5" stroke-linecap="round" stroke-linejoin="round"><path d="M3.75 4.25h16.5l-6 8.15v7.35l-4.5-2.1v-5.25Z"/></symbol>
<symbol id="jd-flame" viewBox="0 0 24 24" fill="none" stroke="currentColor" stroke-width="1.5" stroke-linecap="round" stroke-linejoin="round"><path d="M12 3.9c.3 2.7-.9 4.4-2.45 6C8 11.5 6.75 13.15 6.75 15.4a5.25 5.25 0 0 0 10.5 0c0-1.6-.55-3-1.5-4.4-.5.9-1.15 1.55-2 2 .1-3.2-.8-6.3-1.75-9.1Z"/></symbol>
<symbol id="jd-globe" viewBox="0 0 24 24" fill="none" stroke="currentColor" stroke-width="1.5" stroke-linecap="round" stroke-linejoin="round"><circle cx="12" cy="12" r="9"/><ellipse cx="12" cy="12" rx="4.25" ry="9"/><path d="M3.45 9.25h17.1"/><path d="M3.45 14.75h17.1"/></symbol>
<symbol id="jd-grid" viewBox="0 0 24 24" fill="none" stroke="currentColor" stroke-width="1.5" stroke-linecap="round" stroke-linejoin="round"><rect x="3.75" y="3.75" width="16.5" height="16.5" rx="2"/><path d="M12 3.75v16.5"/><path d="M3.75 12h16.5"/></symbol>
<symbol id="jd-hammer" viewBox="0 0 24 24" fill="none" stroke="currentColor" stroke-width="1.5" stroke-linecap="round" stroke-linejoin="round"><path d="M9.34 6.8l6.36 6.36 2.76-2.76L12.1 4.04Z"/><path d="M12.52 9.98 4 18.5"/></symbol>
<symbol id="jd-info" viewBox="0 0 24 24" fill="none" stroke="currentColor" stroke-width="1.5" stroke-linecap="round" stroke-linejoin="round"><circle cx="12" cy="12" r="9"/><path d="M12 11v5.25"/><circle cx="12" cy="7.9" r=".8"/></symbol>
<symbol id="jd-layout-grid" viewBox="0 0 24 24" fill="none" stroke="currentColor" stroke-width="1.5" stroke-linecap="round" stroke-linejoin="round"><rect x="3.75" y="3.75" width="7" height="7" rx="1.5"/><rect x="13.25" y="3.75" width="7" height="7" rx="1.5"/><rect x="3.75" y="13.25" width="7" height="7" rx="1.5"/><rect x="13.25" y="13.25" width="7" height="7" rx="1.5"/></symbol>
<symbol id="jd-list-ordered" viewBox="0 0 24 24" fill="none" stroke="currentColor" stroke-width="1.5" stroke-linecap="round" stroke-linejoin="round"><path d="M10.75 6h9.5"/><path d="M10.75 12h9.5"/><path d="M10.75 18h9.5"/><path d="m4.35 4.6 1.4-.95V8.1"/><path d="M4.4 10.55a1.5 1.5 0 0 1 2.9.5c0 .55-.33 1-.78 1.4l-2.1 1.8h3.1"/><path d="M4.45 16.25H7.3l-1.55 2.05a1.55 1.55 0 1 1-1.35 2.55"/></symbol>
<symbol id="jd-lock" viewBox="0 0 24 24" fill="none" stroke="currentColor" stroke-width="1.5" stroke-linecap="round" stroke-linejoin="round"><rect x="4.75" y="10.5" width="14.5" height="9.75" rx="2"/><path d="M8 10.5V8a4 4 0 0 1 8 0v2.5"/><circle cx="12" cy="15.4" r=".9"/></symbol>
<symbol id="jd-magnet" viewBox="0 0 24 24" fill="none" stroke="currentColor" stroke-width="1.5" stroke-linecap="round" stroke-linejoin="round"><path d="M4.75 4.5h4.5v8.25a2.75 2.75 0 0 0 5.5 0V4.5h4.5v8.25a7.25 7.25 0 0 1-14.5 0Z"/><path d="M4.75 8h4.5"/><path d="M14.75 8h4.5"/></symbol>
<symbol id="jd-maximize" viewBox="0 0 24 24" fill="none" stroke="currentColor" stroke-width="1.5" stroke-linecap="round" stroke-linejoin="round"><path d="M4.25 8.75v-2.5a2 2 0 0 1 2-2h2.5"/><path d="M15.25 4.25h2.5a2 2 0 0 1 2 2v2.5"/><path d="M19.75 15.25v2.5a2 2 0 0 1-2 2h-2.5"/><path d="M8.75 19.75h-2.5a2 2 0 0 1-2-2v-2.5"/></symbol>
<symbol id="jd-menu" viewBox="0 0 24 24" fill="none" stroke="currentColor" stroke-width="1.5" stroke-linecap="round" stroke-linejoin="round"><path d="M4 7h16"/><path d="M4 12h16"/><path d="M4 17h16"/></symbol>
<symbol id="jd-minimize" viewBox="0 0 24 24" fill="none" stroke="currentColor" stroke-width="1.5" stroke-linecap="round" stroke-linejoin="round"><path d="M8.75 4.25v2.5a2 2 0 0 1-2 2h-2.5"/><path d="M15.25 4.25v2.5a2 2 0 0 0 2 2h2.5"/><path d="M19.75 15.25h-2.5a2 2 0 0 0-2 2v2.5"/><path d="M4.25 15.25h2.5a2 2 0 0 1 2 2v2.5"/></symbol>
<symbol id="jd-minus" viewBox="0 0 24 24" fill="none" stroke="currentColor" stroke-width="1.5" stroke-linecap="round" stroke-linejoin="round"><path d="M5.5 12h13"/></symbol>
<symbol id="jd-moon" viewBox="0 0 24 24" fill="none" stroke="currentColor" stroke-width="1.5" stroke-linecap="round" stroke-linejoin="round"><path d="M20.5 13.9A8.75 8.75 0 1 1 10.1 3.5a7.4 7.4 0 0 0 10.4 10.4Z"/></symbol>
<symbol id="jd-move" viewBox="0 0 24 24" fill="none" stroke="currentColor" stroke-width="1.5" stroke-linecap="round" stroke-linejoin="round"><path d="M12 3.25v17.5"/><path d="M3.25 12h17.5"/><path d="m8.75 6.5 3.25-3.25L15.25 6.5"/><path d="m8.75 17.5 3.25 3.25 3.25-3.25"/><path d="M6.5 8.75 3.25 12l3.25 3.25"/><path d="m17.5 8.75 3.25 3.25-3.25 3.25"/></symbol>
<symbol id="jd-newspaper" viewBox="0 0 24 24" fill="none" stroke="currentColor" stroke-width="1.5" stroke-linecap="round" stroke-linejoin="round"><path d="M16.25 4.75v12.7a1.8 1.8 0 0 0 1.8 1.8H5.7a1.95 1.95 0 0 1-1.95-1.95V4.75Z"/><path d="M16.25 8h2.3a1.7 1.7 0 0 1 1.7 1.7v7.75a1.8 1.8 0 0 1-1.8 1.8"/><path d="M6.75 8.25h6.5"/><path d="M6.75 11.5h6.5"/><path d="M6.75 14.75h4"/></symbol>
<symbol id="jd-pencil" viewBox="0 0 24 24" fill="none" stroke="currentColor" stroke-width="1.5" stroke-linecap="round" stroke-linejoin="round"><path d="M4.4 15.85 15.55 4.7a2.05 2.05 0 0 1 2.9 0l.85.85a2.05 2.05 0 0 1 0 2.9L8.15 19.6l-5.05 1.3 1.3-5.05Z"/><path d="m13.75 6.5 3.75 3.75"/></symbol>
<symbol id="jd-percent" viewBox="0 0 24 24" fill="none" stroke="currentColor" stroke-width="1.5" stroke-linecap="round" stroke-linejoin="round"><path d="M18.75 5.25 5.25 18.75"/><circle cx="7.25" cy="7.25" r="2.6"/><circle cx="16.75" cy="16.75" r="2.6"/></symbol>
<symbol id="jd-pin" viewBox="0 0 24 24" fill="none" stroke="currentColor" stroke-width="1.5" stroke-linecap="round" stroke-linejoin="round"><path d="M9.05 3.75h5.9l-.5 5.9 2.35 1.85a1.05 1.05 0 0 1-.65 1.85H7.85a1.05 1.05 0 0 1-.65-1.85L9.55 9.65Z"/><path d="M12 13.35v7"/></symbol>
<symbol id="jd-plane" viewBox="0 0 24 24" fill="none" stroke="currentColor" stroke-width="1.5" stroke-linecap="round" stroke-linejoin="round"><path d="M12 3.5c.9 0 1.5.75 1.5 1.75V9l7 4.25v2l-7-2v4l2 1.75V20l-3.5-1-3.5 1v-1l2-1.75v-4l-7 2v-2L10.5 9V5.25c0-1 .6-1.75 1.5-1.75Z"/></symbol>
<symbol id="jd-plus" viewBox="0 0 24 24" fill="none" stroke="currentColor" stroke-width="1.5" stroke-linecap="round" stroke-linejoin="round"><path d="M12 5.5v13"/><path d="M5.5 12h13"/></symbol>
<symbol id="jd-redo" viewBox="0 0 24 24" fill="none" stroke="currentColor" stroke-width="1.5" stroke-linecap="round" stroke-linejoin="round"><path d="M16.25 5 20 8.75l-3.75 3.75"/><path d="M20 8.75H9.6a5.6 5.6 0 0 0 0 11.2h6.15"/></symbol>
<symbol id="jd-refresh" viewBox="0 0 24 24" fill="none" stroke="currentColor" stroke-width="1.5" stroke-linecap="round" stroke-linejoin="round"><path d="M20.25 12A8.25 8.25 0 0 0 6.15 6.15L3.75 8.4"/><path d="M3.75 3.9v4.5h4.5"/><path d="M3.75 12a8.25 8.25 0 0 0 14.1 5.85l2.4-2.25"/><path d="M20.25 20.1v-4.5h-4.5"/></symbol>
<symbol id="jd-rows" viewBox="0 0 24 24" fill="none" stroke="currentColor" stroke-width="1.5" stroke-linecap="round" stroke-linejoin="round"><rect x="3.75" y="3.75" width="16.5" height="16.5" rx="2"/><path d="M3.75 12h16.5"/></symbol>
<symbol id="jd-ruler" viewBox="0 0 24 24" fill="none" stroke="currentColor" stroke-width="1.5" stroke-linecap="round" stroke-linejoin="round"><path d="M3.3 17.1 17.1 3.3a1.55 1.55 0 0 1 2.2 0l1.4 1.4a1.55 1.55 0 0 1 0 2.2L6.9 20.7a1.55 1.55 0 0 1-2.2 0l-1.4-1.4a1.55 1.55 0 0 1 0-2.2Z"/><path d="m7.1 13.3 1.8 1.8"/><path d="m10.4 10 1.8 1.8"/><path d="m13.7 6.7 1.8 1.8"/></symbol>
<symbol id="jd-search" viewBox="0 0 24 24" fill="none" stroke="currentColor" stroke-width="1.5" stroke-linecap="round" stroke-linejoin="round"><circle cx="10.75" cy="10.75" r="7"/><path d="m16 16 4.75 4.75"/></symbol>
<symbol id="jd-settings" viewBox="0 0 24 24" fill="none" stroke="currentColor" stroke-width="1.5" stroke-linecap="round" stroke-linejoin="round"><path d="M10.53 5.62L10 3.33A8.9 8.9 0 0 1 14 3.33L13.47 5.62A6.55 6.55 0 0 1 15.47 6.45L15.47 6.45L16.72 4.45A8.9 8.9 0 0 1 19.55 7.28L17.55 8.53A6.55 6.55 0 0 1 18.38 10.53L18.38 10.53L20.67 10A8.9 8.9 0 0 1 20.67 14L18.38 13.47A6.55 6.55 0 0 1 17.55 15.47L17.55 15.47L19.55 16.72A8.9 8.9 0 0 1 16.72 19.55L15.47 17.55A6.55 6.55 0 0 1 13.47 18.38L13.47 18.38L14 20.67A8.9 8.9 0 0 1 10 20.67L10.53 18.38A6.55 6.55 0 0 1 8.53 17.55L8.53 17.55L7.28 19.55A8.9 8.9 0 0 1 4.45 16.72L6.45 15.47A6.55 6.55 0 0 1 5.62 13.47L5.62 13.47L3.33 14A8.9 8.9 0 0 1 3.33 10L5.62 10.53A6.55 6.55 0 0 1 6.45 8.53L6.45 8.53L4.45 7.28A8.9 8.9 0 0 1 7.28 4.45L8.53 6.45Z"/><circle cx="12" cy="12" r="2.9"/></symbol>
<symbol id="jd-slash" viewBox="0 0 24 24" fill="none" stroke="currentColor" stroke-width="1.5" stroke-linecap="round" stroke-linejoin="round"><path d="M19 5 5 19"/></symbol>
<symbol id="jd-sliders" viewBox="0 0 24 24" fill="none" stroke="currentColor" stroke-width="1.5" stroke-linecap="round" stroke-linejoin="round"><path d="M3.75 7h5.6"/><path d="M14.65 7h5.6"/><circle cx="12" cy="7" r="1.9"/><path d="M3.75 12h1.6"/><path d="M10.65 12h9.6"/><circle cx="8" cy="12" r="1.9"/><path d="M3.75 17h9.1"/><path d="M18.15 17h2.1"/><circle cx="15.5" cy="17" r="1.9"/></symbol>
<symbol id="jd-sparkles" viewBox="0 0 24 24" fill="none" stroke="currentColor" stroke-width="1.5" stroke-linecap="round" stroke-linejoin="round"><path d="M10.5 3.75Q10.5 10.5 17.25 10.5Q10.5 10.5 10.5 17.25Q10.5 10.5 3.75 10.5Q10.5 10.5 10.5 3.75Z"/><path d="M18.1 3Q18.1 5.4 20.5 5.4Q18.1 5.4 18.1 7.8Q18.1 5.4 15.7 5.4Q18.1 5.4 18.1 3Z"/><path d="M17.9 15.7Q17.9 17.6 19.8 17.6Q17.9 17.6 17.9 19.5Q17.9 17.6 16 17.6Q17.9 17.6 17.9 15.7Z"/></symbol>
<symbol id="jd-square" viewBox="0 0 24 24" fill="none" stroke="currentColor" stroke-width="1.5" stroke-linecap="round" stroke-linejoin="round"><rect x="4.25" y="4.25" width="15.5" height="15.5" rx="2"/></symbol>
<symbol id="jd-star" viewBox="0 0 24 24" fill="none" stroke="currentColor" stroke-width="1.5" stroke-linecap="round" stroke-linejoin="round"><path d="M12 3.5L14.2 9.37L20.46 9.65L15.57 13.56L17.23 19.6L12 16.15L6.77 19.6L8.43 13.56L3.54 9.65L9.8 9.37Z"/></symbol>
<symbol id="jd-sun" viewBox="0 0 24 24" fill="none" stroke="currentColor" stroke-width="1.5" stroke-linecap="round" stroke-linejoin="round"><circle cx="12" cy="12" r="4"/><path d="M12 3v2.5M12 18.5V21M3 12h2.5M18.5 12H21"/><path d="M16.6 16.6L18.36 18.36M7.4 16.6L5.64 18.36M7.4 7.4L5.64 5.64M16.6 7.4L18.36 5.64"/></symbol>
<symbol id="jd-swap" viewBox="0 0 24 24" fill="none" stroke="currentColor" stroke-width="1.5" stroke-linecap="round" stroke-linejoin="round"><path d="M4 7.5h16"/><path d="m16.5 4 3.5 3.5-3.5 3.5"/><path d="M20 16.5H4"/><path d="m7.5 13-3.5 3.5L7.5 20"/></symbol>
<symbol id="jd-target" viewBox="0 0 24 24" fill="none" stroke="currentColor" stroke-width="1.5" stroke-linecap="round" stroke-linejoin="round"><circle cx="12" cy="12" r="9"/><circle cx="12" cy="12" r="5.4"/><circle cx="12" cy="12" r="1.8"/></symbol>
<symbol id="jd-trash" viewBox="0 0 24 24" fill="none" stroke="currentColor" stroke-width="1.5" stroke-linecap="round" stroke-linejoin="round"><path d="M4.25 6.25h15.5"/><path d="M9.25 6V4.75c0-.55.45-1 1-1h3.5c.55 0 1 .45 1 1V6"/><path d="m6.25 6.5.8 12a1.9 1.9 0 0 0 1.9 1.75h6.1a1.9 1.9 0 0 0 1.9-1.75l.8-12"/><path d="M10.1 10.5v6"/><path d="M13.9 10.5v6"/></symbol>
<symbol id="jd-trending-down" viewBox="0 0 24 24" fill="none" stroke="currentColor" stroke-width="1.5" stroke-linecap="round" stroke-linejoin="round"><path d="m3.5 7 6.75 6.75 3.9-3.9 6.35 6.35"/><path d="M15.4 16.75h5.1v-5.1"/></symbol>
<symbol id="jd-trending-up" viewBox="0 0 24 24" fill="none" stroke="currentColor" stroke-width="1.5" stroke-linecap="round" stroke-linejoin="round"><path d="m3.5 17 6.75-6.75 3.9 3.9 6.35-6.35"/><path d="M15.4 7.25h5.1v5.1"/></symbol>
<symbol id="jd-type" viewBox="0 0 24 24" fill="none" stroke="currentColor" stroke-width="1.5" stroke-linecap="round" stroke-linejoin="round"><path d="M5.5 7V5.25h13V7"/><path d="M12 5.25v13.5"/><path d="M9.5 18.75h5"/></symbol>
<symbol id="jd-undo" viewBox="0 0 24 24" fill="none" stroke="currentColor" stroke-width="1.5" stroke-linecap="round" stroke-linejoin="round"><path d="M7.75 5 4 8.75l3.75 3.75"/><path d="M4 8.75h10.4a5.6 5.6 0 0 1 0 11.2H8.25"/></symbol>
<symbol id="jd-wallet" viewBox="0 0 24 24" fill="none" stroke="currentColor" stroke-width="1.5" stroke-linecap="round" stroke-linejoin="round"><rect x="3.25" y="6.5" width="17.5" height="12.75" rx="2.4"/><path d="M20.75 10.75h-4.4a2.25 2.25 0 0 0 0 4.5h4.4"/><circle cx="15.4" cy="13" r=".85"/></symbol>
<symbol id="jd-warning" viewBox="0 0 24 24" fill="none" stroke="currentColor" stroke-width="1.5" stroke-linecap="round" stroke-linejoin="round"><path d="M12 4 21 20H3Z"/><path d="M12 10.25v4"/><circle cx="12" cy="17.15" r=".8"/></symbol>
<symbol id="jd-wind" viewBox="0 0 24 24" fill="none" stroke="currentColor" stroke-width="1.5" stroke-linecap="round" stroke-linejoin="round"><path d="M3.75 7.75h8.9a2.15 2.15 0 1 0-2.05-2.8"/><path d="M3.75 12h13.4a2.3 2.3 0 1 1-2.2 3"/><path d="M3.75 16.25h7.9a2 2 0 1 1-1.9 2.6"/></symbol>
</defs>
</svg>
